Simulation
nRows=32
nColumns=15
endheader
time  TH_x TH_y TH_z SC_y  SC_z  SC_x  AC_y  AC_z  AC_x  GH_y  GH_z  GH_yy  EL_x  PS_y
1.5  0.000000  0.000000  0.000000  -28.85826292219608  4.401704674823254  6.73155580320096  74.84871184891409  20.240381663131178  1.550218979508019  22.06204250437249  56.110410667439965  -42.15328019041125  38.84237470522472  120.000000
1.53  0.000000  0.000000  0.000000  -28.822452331616358  4.372294486785795  6.759823267287733  74.75481429393122  20.208669866472228  1.4640348733746145  22.166144342091812  56.004249663544  -42.25820481539527  38.90291573089707  120.000000
1.56  0.000000  0.000000  0.000000  -28.781271718178093  4.341107097437765  6.757524326944361  74.65326788023978  20.192105076381516  1.3803416430738207  22.28159215957632  55.89315359896551  -42.37114441516581  38.9592165621583  120.000000
1.5899999999999999  0.000000  0.000000  0.000000  -28.73587475277373  4.307054600392931  6.723468760266418  74.55185500070161  20.187236784381756  1.3013694418361348  22.399500326816387  55.776393749317066  -42.482921003244996  39.00926889469954  120.000000
1.6199999999999999  0.000000  0.000000  0.000000  -28.68744912010904  4.268985419169196  6.657631343739244  74.4562278122971  20.189974041489204  1.2279847149157843  22.513096190277874  55.65083183082549  -42.58327156909795  39.05127674172797  120.000000
1.65  0.000000  0.000000  0.000000  -28.637050127662913  4.2257486752972815  6.560634979530041  74.3692464042606  20.196361109985776  1.159624812957819  22.618473767350388  55.510876795034484  -42.66165634125437  39.08377450680365  120.000000
1.68  0.000000  0.000000  0.000000  -28.585323048467693  4.1761692582887235  6.4331708420799085  74.29108650633492  20.203177509263508  1.0945894000615335  22.714607387606858  55.34874968489726  -42.708051462933255  39.10565290068897  120.000000
1.71  0.000000  0.000000  0.000000  -28.532218315031646  4.119063063115907  6.275514799989287  74.2196755448956  20.208304567742086  1.030489827012132  22.802786066636802  55.155074532460475  -42.713627305235754  39.116236151366955  120.000000
1.74  0.000000  0.000000  0.000000  -28.47686620119016  4.053268553493845  6.087425813083912  74.15122728396187  20.21098807040006  0.9646363377803979  22.885645335077317  54.9194851668522  -42.67111829481113  39.11535375459384  120.000000
1.77  0.000000  0.000000  0.000000  -28.417487014099567  3.977626589110478  5.868196983727341  74.08069291040901  20.21183418501398  0.8943521687567777  22.96608235764502  54.63133111583741  -42.574819995352335  39.103361085477204  120.000000
1.7999999999999998  0.000000  0.000000  0.000000  -28.35148218213854  3.8909751018297696  5.616781084233905  74.00239654028957  20.212632008183427  0.8170854208750402  23.046252115661982  54.28023885095475  -42.420249000005164  39.08115386435668  120.000000
1.8299999999999998  0.000000  0.000000  0.000000  -28.275635645342096  3.792184215227407  5.3317442046071735  73.91034537510134  20.215818282031844  0.7306254109773495  23.12693049005435  53.856874881979856  -42.20320437841998  39.05016383268577  120.000000
1.8599999999999999  0.000000  0.000000  0.000000  -28.186389711352284  3.680172972224055  5.011237954097659  73.7987592483053  20.223982732933425  0.6331147733749417  23.20706517971036  53.35356928330421  -41.91886566145151  39.012211938370925  120.000000
1.89  0.000000  0.000000  0.000000  -28.080000005272826  3.553927637609969  4.652786477639103  73.66222104626887  20.239182148733097  0.523273786462012  23.283585358888597  52.765189895178835  -41.56071020919291  38.969363291916885  120.000000
1.92  0.000000  0.000000  0.000000  -27.95272200972884  3.4125410447705478  4.25323710793692  73.49604476395578  20.26253716995046  0.40046033782124374  23.351374844573936  52.089654746717834  -41.11995541863893  38.92377669737775  120.000000
1.95  0.000000  0.000000  0.000000  -27.800916091161152  3.255263119617305  3.808749332926574  73.29618295574228  20.293867292780625  0.2649011361472925  23.40357873411457  51.32838998755687  -40.585282331774124  38.8775903773186  120.000000
1.98  0.000000  0.000000  0.000000  -27.621271564590554  3.081605328954974  3.3151581970528943  73.05932866021762  20.33184424715123  0.11772378841063293  23.432099920811762  50.486020961816536  -39.94345537677648  38.83284694704267  120.000000
2.01  0.000000  0.000000  0.000000  -27.411036424295595  2.891506630113353  2.7686398497248024  72.7826250313928  20.374053953874633  -0.03895772998488627  23.42853774676521  49.56981450504339  -39.180228047367955  38.79139315991013  120.000000
2.04  0.000000  0.000000  0.000000  -27.168338456590504  2.685355724378846  2.1664587158196316  72.46383660058844  20.41739521645159  -0.2022207450458529  23.38514888999487  48.58860954898715  -38.281930175854576  38.754783018574045  120.000000
2.07  0.000000  0.000000  0.000000  -26.89251978645413  2.4640314926170848  1.507030141258806  72.10121287979338  20.45911499079902  -0.3682859631464225  23.295760774535136  47.552029800361204  -37.23709943436532  38.72404280449434  120.000000
2.1  0.000000  0.000000  0.000000  -26.58448228847773  2.2292615809101752  0.7903254123394698  71.69332386095985  20.498076516312  -0.5325307470385079  23.156186213129295  46.46944155054939  -36.03812513604028  38.699481289266096  120.000000
2.13  0.000000  0.000000  0.000000  -26.246630966696003  1.983755693310914  0.018437882237672523  71.23861495775023  20.53501749413904  -0.689972620915989  22.96413475596535  45.34955513639006  -34.68269258187146  38.68066215846664  120.000000
2.16  0.000000  0.000000  0.000000  -25.882511263014095  1.731173031126421  -0.8041750076811172  70.73513365686959  20.57252248524964  -0.8359190363765985  22.718831651586846  44.199802926712586  -33.17475805725755  38.66665513621815  120.000000
2.19  0.000000  0.000000  0.000000  -25.496228222942953  1.4765397849128765  -1.6702722508417354  70.18033034995486  20.613457234184136  -0.9662668376045701  22.420988029856677  43.025801417702894  -31.52471413122291  38.65683987172897  120.000000
2.2199999999999998  0.000000  0.000000  0.000000  -25.091472129972214  1.2254797668645008  -2.5695764826925966  69.57190066394305  20.658887944908347  -1.0781463974793235  22.072749525452057  41.83107250090939  -29.749034298232374  38.65162046759098  120.000000
2.25  0.000000  0.000000  0.000000  -24.6703917258858  0.9837505708245781  -3.490879914585684  68.90866861459648  20.708615967266223  -1.1695090350716895  21.67674494869452  40.617004302185535  -27.869256387803414  38.652797536396754  120.000000
2.28  0.000000  0.000000  0.000000  -24.23420782161036  0.7580374103183816  -4.423948136783655  68.1903052619221  20.762235529661435  -1.2377361152336348  21.235054413669772  39.38353881680123  -25.908449447590538  38.66377568298285  120.000000
2.31  0.000000  0.000000  0.000000  -23.783425972179284  0.5545941552622392  -5.359003322856998  67.41799184734874  20.8186600128727  -1.280915134793338  20.747105325865984  38.13012256543954  -23.887192635979353  38.68878431599572  120.000000
2.34  0.000000  0.000000  0.000000  -23.317033194431684  0.3785181561982483  -6.286912036248608  66.59472648263278  20.875067006627898  -1.2979034241550242  20.207439993891892  36.85744045505333  -21.81893922897126  38.73051929855031  120.000000
2.37  0.000000  0.000000  0.000000  -22.833543807496174  0.2346867157938442  -7.198849548244586  65.726079500145  20.927264886062122  -1.2873896479230325  19.604874241443497  35.56816466261173  -19.704779685567768  38.78887140165603  120.000000
2.4  0.000000  0.000000  0.000000  -22.33043056333039  0.12793528979845561  -8.085972235722055  64.81907727323902  20.969528144219794  -1.248269792281364  18.923020896518068  34.268323679414024  -17.52987321109211  38.8606610925437  120.000000
2.4299999999999997  0.000000  0.000000  0.000000  -21.804339282047142  0.06166038208004665  -8.938928697598424  63.882643854559916  20.995059659979574  -1.1810215178233407  18.14207466381032  32.966362653909634  -15.263811413198138  38.93890300690226  120.000000
